<svg id="Capa_1" enable-background="new 0 0 512.002 512.002" height="512" viewBox="0 0 512.002 512.002" width="512" xmlns="http://www.w3.org/2000/svg"><g><g><path d="m440.45 64.295c-6.961 0-366.963 0-368.981 0-19.219 0-34.855 15.636-34.855 34.856v261.446c0 16.999 12.597 31.73 29.36 34.416l6.278 5.012h362l11.695-5.012c16.763-2.686 29.36-17.417 29.36-34.416 0-8.699 0-253.578 0-261.446-.002-19.219-15.638-34.856-34.857-34.856z" fill="#3f6d8e"/><path d="m69.863 360.598v-261.447c0-19.22 15.636-34.856 34.855-34.856-20.297 0-32.877 0-33.25 0-19.219 0-34.855 15.636-34.855 34.856v261.446c0 16.999 12.597 31.73 29.36 34.416l6.278 5.012h33.25l-6.278-5.012c-16.764-2.685-29.36-17.417-29.36-34.415z" fill="#365e7d"/><path d="m498.64 395.014h-485.363c-3.214 0-5.82 2.631-5.82 5.876v20.213c0 14.998 12.152 27.269 27.005 27.269h442.992c14.853 0 27.005-12.271 27.005-27.269v-20.213c0-3.246-2.605-5.876-5.819-5.876z" fill="#407093"/><path d="m67.925 421.103v-20.213c0-3.246 2.605-5.876 5.82-5.876h-60.468c-3.214 0-5.82 2.631-5.82 5.876v20.213c0 14.998 12.152 27.269 27.005 27.269h60.468c-14.852 0-27.005-12.271-27.005-27.269z" fill="#365e7d"/><path d="m183.466 395.014v13.561c0 6.665 5.4 12.119 12.001 12.119h120.984c6.601 0 12.001-5.454 12.001-12.119v-13.561z" fill="#5c90b9"/><path d="m243.933 408.575v-13.561h-60.468v13.561c0 6.665 5.4 12.119 12.001 12.119h60.468c-6.6-.001-12.001-5.454-12.001-12.119z" fill="#4a80aa"/><path d="m67.925 131.462v226.268c0 3.454 2.8 6.254 6.253 6.254h43.635l2.771-2.626h82l3.487 2.626h99.776l2.237-2.626h83.167l2.854 2.626h43.635c3.453 0 6.253-2.8 6.253-6.254 0-2.294 0-219.396 0-226.268-16.514 0-359.56 0-376.068 0z" fill="#e4f6ff"/><path d="m108.576 357.73c0-4.325 0-216.71 0-226.268-22.425 0-37.498 0-40.651 0v226.268c0 3.454 2.8 6.254 6.253 6.254h40.651c-3.453 0-6.253-2.8-6.253-6.254z" fill="#d3effb"/><path d="m367.806 321.17h-35.661c-14.524 0-26.299 11.775-26.299 26.299v16.515h88.258v-16.515c0-14.524-11.774-26.299-26.298-26.299z" fill="#90d8f9"/><circle cx="349.975" cy="298.78" fill="#ffdecf" r="22.39"/><path d="m367.806 205.409h-35.661c-14.524 0-26.299 11.775-26.299 26.299v16.515h88.258v-16.515c0-14.524-11.774-26.299-26.298-26.299z" fill="#ffaa5b"/><circle cx="349.975" cy="183.019" fill="#ffdecf" r="22.39"/><path d="m179.772 321.17h-35.661c-14.524 0-26.299 11.775-26.299 26.299v16.515h88.258v-16.515c.001-14.524-11.773-26.299-26.298-26.299z" fill="#b3e59f"/><path d="m369.241 321.211c-.475-.026-.954-.041-1.435-.041h-35.661c-14.524 0-26.299 11.775-26.299 26.299v16.515h38.531v-16.515c.001-14.042 11.008-25.513 24.864-26.258z" fill="#75cef9"/><path d="m181.208 321.211c-.476-.026-.954-.041-1.436-.041h-35.661c-14.524 0-26.299 11.775-26.299 26.299v16.515h38.531v-16.515c.002-14.042 11.008-25.513 24.865-26.258z" fill="#95d6a4"/><circle cx="161.942" cy="298.78" fill="#ffdecf" r="22.39"/><path d="m179.772 205.409h-35.661c-14.524 0-26.299 11.775-26.299 26.299v16.515h88.258v-16.515c.001-14.524-11.773-26.299-26.298-26.299z" fill="#dd636e"/><path d="m369.241 205.45c-.475-.026-.954-.041-1.435-.041h-35.661c-14.524 0-26.299 11.775-26.299 26.299v16.515h38.531v-16.515c.001-14.042 11.008-25.513 24.864-26.258z" fill="#ff9838"/><path d="m181.208 205.45c-.476-.026-.954-.041-1.436-.041h-35.661c-14.524 0-26.299 11.775-26.299 26.299v16.515h38.531v-16.515c.002-14.042 11.008-25.513 24.865-26.258z" fill="#da4a54"/><circle cx="161.942" cy="183.019" fill="#ffdecf" r="22.39"/><g fill="#ffcebe"><path d="m356.533 314.612c-8.744-8.744-8.744-22.92 0-31.664 1.415-1.415 2.983-2.577 4.637-3.534-8.564-4.956-19.698-3.795-27.027 3.534-8.744 8.744-8.744 22.92 0 31.664 7.329 7.329 18.463 8.49 27.027 3.534-1.654-.957-3.222-2.118-4.637-3.534z"/><path d="m356.533 198.851c-8.744-8.744-8.744-22.92 0-31.664 1.415-1.415 2.983-2.577 4.637-3.534-8.564-4.956-19.698-3.795-27.027 3.534-8.744 8.744-8.744 22.92 0 31.664 7.329 7.329 18.463 8.49 27.027 3.534-1.654-.957-3.222-2.118-4.637-3.534z"/><path d="m168.5 314.612c-8.744-8.744-8.744-22.92 0-31.664 1.415-1.415 2.983-2.577 4.637-3.534-8.564-4.956-19.698-3.795-27.027 3.534-8.744 8.744-8.744 22.92 0 31.664 7.328 7.329 18.463 8.49 27.027 3.534-1.654-.957-3.222-2.118-4.637-3.534z"/><path d="m168.5 198.851c-8.744-8.744-8.744-22.92 0-31.664 1.415-1.415 2.983-2.577 4.637-3.534-8.564-4.956-19.698-3.795-27.027 3.534-8.744 8.744-8.744 22.92 0 31.664 7.328 7.329 18.463 8.49 27.027 3.534-1.654-.957-3.222-2.118-4.637-3.534z"/></g><path d="m108.576 95.374h-34.398c-3.453 0-6.253 2.8-6.253 6.254v30.834h40.651l1.758-1.438v-33.75z" fill="#dd636e"/><path d="m437.739 95.373c-16.149 0-316.364 0-329.163 0v37.088h335.416v-30.834c0-3.453-2.8-6.254-6.253-6.254z" fill="#b1e4f9"/></g><g><path d="m34.506 455.54h442.991c19.026 0 34.505-15.597 34.505-34.769v-20.213c0-7.376-5.975-13.376-13.319-13.376h-25.644c6.131-7.405 9.809-16.846 9.809-26.916v-94.876c0-4.142-3.357-7.5-7.5-7.5s-7.5 3.358-7.5 7.5v94.875c0 13.106-9.631 24.578-22.494 26.916-17.196 0-367.582 0-378.704 0-12.863-2.338-22.494-13.81-22.494-26.916v-261.446c0-15.084 12.271-27.356 27.355-27.356h368.981c15.084 0 27.355 12.272 27.355 27.356v131.571c0 4.142 3.357 7.5 7.5 7.5s7.5-3.358 7.5-7.5v-131.571c0-23.355-19.001-42.356-42.355-42.356h-368.981c-23.354 0-42.355 19.001-42.355 42.356v261.446c0 10.07 3.677 19.511 9.809 26.916h-25.645c-7.345 0-13.32 6-13.32 13.376v20.213c0 19.172 15.479 34.77 34.506 34.77zm156.503-53.359h129.985v6.061c0 2.503-2.062 4.619-4.501 4.619h-120.983c-2.439 0-4.501-2.115-4.501-4.619zm-176.009 0h161.009v6.061c0 10.818 8.748 19.619 19.501 19.619h120.983c10.753 0 19.501-8.801 19.501-19.619v-6.061h161.008v18.59c0 10.9-8.75 19.769-19.505 19.769h-442.991c-10.756 0-19.506-8.869-19.506-19.769z"/><path d="m238.501 102.541c4.143 0 7.5-3.358 7.5-7.5s-3.357-7.5-7.5-7.5c-7.086 0-158.026 0-164.279 0-7.584 0-13.754 6.17-13.754 13.754v256.102c0 7.584 6.17 13.754 13.754 13.754h363.561c7.583 0 13.753-6.17 13.753-13.754 0-20.988 0-246.588 0-256.103 0-7.584-6.17-13.754-13.753-13.754h-164.282c-4.143 0-7.5 3.358-7.5 7.5s3.357 7.5 7.5 7.5h163.034v22.088c-4.39 0-315.498 0-320.416 0v-22.088h122.382zm148.146 253.61h-73.257v-9.015c0-10.366 8.434-18.799 18.799-18.799h35.66c10.365 0 18.799 8.433 18.799 18.799v9.015zm-51.518-57.703c0-8.229 6.659-14.89 14.89-14.89 13.213 0 19.884 16.062 10.529 25.418-5.82 5.819-15.239 5.819-21.059 0-2.811-2.812-4.36-6.551-4.36-10.528zm-71.627-158.819h173.033v100.761h-34.888v-9.015c0-16.035-11.229-29.489-26.235-32.934 7.15-11.526 5.736-26.894-4.258-36.889h-.001c-5.646-5.646-13.151-8.754-21.135-8.754-16.521 0-29.89 13.367-29.89 29.89 0 5.657 1.568 11.071 4.486 15.756-15 3.449-26.225 16.9-26.225 32.932v9.015h-34.888v-100.762zm104.347 72.948c10.365 0 18.799 8.433 18.799 18.798v9.015h-73.258v-9.015c0-10.365 8.434-18.798 18.799-18.798zm-32.72-29.89c0-8.229 6.659-14.89 14.89-14.89 13.214 0 19.883 16.063 10.528 25.418-5.82 5.82-15.238 5.82-21.058 0-2.811-2.812-4.36-6.551-4.36-10.528zm-71.627 72.703h173.033v100.761h-34.888v-9.015c0-16.036-11.229-29.489-26.234-32.935 7.15-11.526 5.736-26.893-4.259-36.889h-.001c-18.867-18.867-51.024-5.3-51.024 21.135 0 5.657 1.568 11.071 4.486 15.756-15 3.449-26.225 16.9-26.225 32.933v9.015h-34.888zm-188.034-152.849h25.651v22.088h-25.651zm123.146 253.61h-73.258v-9.015c0-10.366 8.433-18.799 18.798-18.799h35.661c10.365 0 18.799 8.433 18.799 18.799zm-36.629-72.593c13.213 0 19.884 16.062 10.529 25.418-5.82 5.819-15.239 5.819-21.059 0-9.409-9.412-2.626-25.418 10.53-25.418zm86.517 72.593h-34.888v-9.015c0-16.036-11.229-29.489-26.234-32.935 7.15-11.526 5.736-26.893-4.259-36.889h-.001c-18.867-18.867-51.024-5.3-51.024 21.135 0 5.657 1.568 11.07 4.486 15.756-15 3.449-26.225 16.9-26.225 32.933v9.015h-34.889v-100.761h173.034zm-68.687-143.574c10.365 0 18.799 8.433 18.799 18.798v9.015h-73.258v-9.015c0-10.365 8.433-18.798 18.798-18.798zm-17.83-44.78c13.214 0 19.883 16.063 10.528 25.418-5.82 5.82-15.238 5.82-21.058 0-9.309-9.313-2.763-25.418 10.53-25.418zm86.517-28.168v100.761h-34.888v-9.015c0-16.035-11.229-29.489-26.235-32.934 7.15-11.526 5.736-26.894-4.258-36.889h-.001c-5.646-5.646-13.151-8.754-21.135-8.754-16.521 0-29.89 13.367-29.89 29.89 0 5.657 1.568 11.071 4.486 15.756-15 3.449-26.225 16.9-26.225 32.932v9.015h-34.888v-100.762z"/></g></g></svg>