<svg id="Capa_1" enable-background="new 0 0 512 512" height="512" viewBox="0 0 512 512" width="512" xmlns="http://www.w3.org/2000/svg"><g><path d="m464.273 364.897h-94.963v-36.942h94.963c10.201 0 18.471 8.27 18.471 18.471 0 10.194-8.262 18.471-18.471 18.471z" fill="#ff9b57"/><path d="m466.62 301.74c-.068 0-97.31-.024-97.31.044 0 .069-.024 29.216.044 29.216h95.217c8.547 0 15.476 6.916 15.503 15.456l1.239 1h29.5l.801-1c-.151-24.733-20.257-44.716-44.994-44.716z" fill="#fc7c54"/><path d="m450.94 225.5c0 51.3-16.93 99.84-48.19 139.4h-354.56c-31.26-39.56-48.19-88.1-48.19-139.4 0-124.615 100.832-225.5 225.47-225.5 124.619 0 225.47 100.862 225.47 225.5z" fill="#1ae2cf"/><path d="m450.94 225.5c0 52.623-17.81 101.022-48.19 139.4h-177.28v-364.9c124.619 0 225.47 100.862 225.47 225.5z" fill="#08d0c8"/><path d="m225.471 181.05c33.081 0 59.994-26.916 59.994-60s-26.913-60-59.994-60c-33.08 0-59.993 26.916-59.993 60s26.913 60 59.993 60z" fill="#175066"/><path d="m285.46 121.05c0 33.08-26.91 60-59.99 60v-120c33.08 0 59.99 26.92 59.99 60z" fill="#0f3d4f"/><ellipse cx="121.021" cy="225.5" fill="#175066" rx="60" ry="59.994"/><path d="m274.21 364.9h-97.48c-28.374-39.531-.024-94.95 48.74-94.95 48.83 0 77.066 55.486 48.74 94.95z" fill="#175066"/><path d="m274.21 364.9h-48.74v-94.95c49.141 0 76.961 55.94 48.74 94.95z" fill="#0f3d4f"/><ellipse cx="329.921" cy="225.5" fill="#0f3d4f" rx="60" ry="59.994"/><circle cx="226" cy="226.05" fill="#2befd3" r="15"/><path d="m241 226.05c0 8.856-7.619 15.456-15.53 14.99v-29.98c7.858-.462 15.53 6.084 15.53 14.99z" fill="#1ae2cf"/><path d="m31.46 377h204.2v120h-204.2z" fill="#ffaf78"/><path d="m455.072 497h-229.412v-120h245.38l40.65-30.26c.017 5.171.313 94.1.31 93.143.105 31.514-25.413 57.117-56.928 57.117z" fill="#ff9b57"/><path d="m511.61 346.46h-31.54c0 8.764-7.007 15.432-15.29 15.54h-447.369c-8.079 0-15.026 6.215-15.395 14.286-.393 8.611 6.471 15.704 14.984 15.704h5v90.01h-4.573c-8.074 0-15.024 6.201-15.41 14.265-.411 8.614 6.459 15.735 14.983 15.735h451.99c23.96-1.03 43.01-20.781 43.01-44.95 0-12.693.002-6.261-.01-29.99 0 22.682-18.424 43.877-43.38 44.95l-46.81-.01v-90.25h44.598c24.987 0 45.255-20.276 45.212-45.29zm-369.61 135.54h-90v-90.03l90-.06zm124.51 0h-94.51v-90.11l94.51-.06zm125.29 0h-95.29v-90.19l95.29-.06z" fill="#ff9b57"/><path d="m511.99 437.06c0 22.682-18.423 43.877-43.38 44.95l-46.81-.01v-90.25h44.6c25 0 45.25-20.29 45.21-45.29h-31.54c0 8.76-7.01 15.43-15.29 15.54h-239.31v29.86l41.04-.03v90.17h-41.04v30h243.52c23.96-1.03 43.01-20.781 43.01-44.95 0-12.693.002-6.261-.01-29.99zm-120.19 44.94h-95.29v-90.19l95.29-.06z" fill="#fc7c54"/></g></svg>